<mxfile host="app.diagrams.net" agent="Mozilla/5.0 (Windows NT 10.0; Win64; x64) AppleWebKit/537.36 (KHTML, like Gecko) Chrome/127.0.0.0 Safari/537.36" version="24.7.7">
  <diagram name="Page-1" id="dNp3bxclKe3GsoZLV4Ss">
    <mxGraphModel dx="1480" dy="536" grid="0" gridSize="10" guides="1" tooltips="1" connect="1" arrows="1" fold="1" page="0" pageScale="1" pageWidth="850" pageHeight="1100" math="0" shadow="0">
      <root>
        <mxCell id="0" />
        <mxCell id="1" parent="0" />
        <mxCell id="j729VaqLpvcswrJyG-qA-1" value="路径规划模块" style="rounded=0;whiteSpace=wrap;html=1;align=left;fontSize=16;spacingLeft=5;spacingRight=5;" parent="1" vertex="1">
          <mxGeometry x="-84.5" y="430" width="609" height="194" as="geometry" />
        </mxCell>
        <mxCell id="j729VaqLpvcswrJyG-qA-2" value="Point：类&lt;div&gt;&lt;br&gt;&lt;div style=&quot;font-size: 16px;&quot;&gt;表示地图上的二维点&lt;/div&gt;&lt;/div&gt;" style="rounded=0;whiteSpace=wrap;html=1;verticalAlign=top;fontSize=16;align=center;spacingLeft=5;spacingRight=5;" parent="1" vertex="1">
          <mxGeometry x="44.5" y="511" width="123" height="94" as="geometry" />
        </mxCell>
        <mxCell id="7ZGSdGo9mhl5E9FGy_AN-2" value="sVec：类&lt;div&gt;&lt;br&gt;&lt;/div&gt;&lt;div&gt;&lt;div style=&quot;text-align: left;&quot;&gt;&lt;span style=&quot;background-color: initial;&quot;&gt;表示船舶状态；由二维点与朝向构成&lt;/span&gt;&lt;/div&gt;&lt;div style=&quot;font-size: 16px;&quot;&gt;&lt;br&gt;&lt;/div&gt;&lt;/div&gt;" style="rounded=0;whiteSpace=wrap;html=1;verticalAlign=top;fontSize=16;spacingLeft=5;spacingRight=5;" vertex="1" parent="1">
          <mxGeometry x="179.5" y="511" width="144" height="92" as="geometry" />
        </mxCell>
        <mxCell id="7ZGSdGo9mhl5E9FGy_AN-4" value="Pixel Attrs：类&lt;div&gt;&lt;br&gt;&lt;/div&gt;&lt;div&gt;&lt;div style=&quot;text-align: left;&quot;&gt;&lt;span style=&quot;background-color: initial;&quot;&gt;表示像素点状态用&lt;/span&gt;&lt;/div&gt;&lt;div style=&quot;font-size: 16px;&quot;&gt;&lt;br&gt;&lt;/div&gt;&lt;/div&gt;" style="rounded=0;whiteSpace=wrap;html=1;verticalAlign=top;fontSize=16;spacingLeft=5;spacingRight=5;" vertex="1" parent="1">
          <mxGeometry x="335.5" y="511" width="158" height="91" as="geometry" />
        </mxCell>
        <mxCell id="7ZGSdGo9mhl5E9FGy_AN-6" value="机器人 bfs 寻路" style="rounded=0;whiteSpace=wrap;html=1;verticalAlign=top;fontSize=16;align=center;spacingLeft=5;spacingRight=5;" vertex="1" parent="1">
          <mxGeometry x="44.5" y="443" width="210" height="52" as="geometry" />
        </mxCell>
        <mxCell id="7ZGSdGo9mhl5E9FGy_AN-7" value="船舶 bfs 寻路" style="rounded=0;whiteSpace=wrap;html=1;verticalAlign=top;fontSize=16;align=center;spacingLeft=5;spacingRight=5;" vertex="1" parent="1">
          <mxGeometry x="274.5" y="443" width="218" height="52" as="geometry" />
        </mxCell>
        <mxCell id="7ZGSdGo9mhl5E9FGy_AN-8" value="核心模块" style="rounded=0;whiteSpace=wrap;html=1;align=left;fontSize=16;spacingLeft=5;spacingRight=5;" vertex="1" parent="1">
          <mxGeometry x="-84" y="152" width="608" height="254" as="geometry" />
        </mxCell>
        <mxCell id="7ZGSdGo9mhl5E9FGy_AN-9" value="env：类&lt;div&gt;&lt;br&gt;&lt;div style=&quot;font-size: 16px;&quot;&gt;管理地图、机器人、港口、船只等对象&lt;/div&gt;&lt;/div&gt;&lt;div style=&quot;font-size: 16px;&quot;&gt;处理判题器输入&lt;/div&gt;" style="rounded=0;whiteSpace=wrap;html=1;verticalAlign=top;fontSize=16;align=center;spacingLeft=5;spacingRight=5;" vertex="1" parent="1">
          <mxGeometry x="-1.5" y="172" width="477" height="94" as="geometry" />
        </mxCell>
        <mxCell id="7ZGSdGo9mhl5E9FGy_AN-11" style="edgeStyle=orthogonalEdgeStyle;rounded=0;orthogonalLoop=1;jettySize=auto;html=1;entryX=1;entryY=0.5;entryDx=0;entryDy=0;startArrow=none;startFill=0;strokeWidth=2;" edge="1" parent="1" source="7ZGSdGo9mhl5E9FGy_AN-10" target="7ZGSdGo9mhl5E9FGy_AN-9">
          <mxGeometry relative="1" as="geometry" />
        </mxCell>
        <mxCell id="7ZGSdGo9mhl5E9FGy_AN-12" value="&lt;div style=&quot;text-align: left;&quot;&gt;&lt;b&gt;&lt;font color=&quot;#ea6b66&quot;&gt;① &lt;/font&gt;&lt;/b&gt;输入&lt;/div&gt;&lt;div&gt;每一帧信息&lt;/div&gt;" style="edgeLabel;html=1;align=center;verticalAlign=middle;resizable=0;points=[];fontSize=15;" vertex="1" connectable="0" parent="7ZGSdGo9mhl5E9FGy_AN-11">
          <mxGeometry x="-0.0416" y="1" relative="1" as="geometry">
            <mxPoint x="24" y="-6" as="offset" />
          </mxGeometry>
        </mxCell>
        <mxCell id="7ZGSdGo9mhl5E9FGy_AN-10" value="判题器" style="rounded=0;whiteSpace=wrap;html=1;fontSize=16;" vertex="1" parent="1">
          <mxGeometry x="650" y="195" width="120" height="60" as="geometry" />
        </mxCell>
        <mxCell id="7ZGSdGo9mhl5E9FGy_AN-29" style="edgeStyle=orthogonalEdgeStyle;rounded=0;orthogonalLoop=1;jettySize=auto;html=1;strokeWidth=2;" edge="1" parent="1" source="7ZGSdGo9mhl5E9FGy_AN-13" target="7ZGSdGo9mhl5E9FGy_AN-10">
          <mxGeometry relative="1" as="geometry" />
        </mxCell>
        <mxCell id="7ZGSdGo9mhl5E9FGy_AN-30" value="&lt;font style=&quot;font-size: 15px;&quot;&gt;&lt;b&gt;&lt;font color=&quot;#ea6b66&quot;&gt;③&amp;nbsp;&lt;/font&gt;&lt;/b&gt;输出调度指令&lt;/font&gt;" style="edgeLabel;html=1;align=center;verticalAlign=middle;resizable=0;points=[];" vertex="1" connectable="0" parent="7ZGSdGo9mhl5E9FGy_AN-29">
          <mxGeometry x="-0.113" y="5" relative="1" as="geometry">
            <mxPoint x="-16" y="5" as="offset" />
          </mxGeometry>
        </mxCell>
        <mxCell id="7ZGSdGo9mhl5E9FGy_AN-13" value="调度器" style="rounded=0;whiteSpace=wrap;html=1;align=left;fontSize=16;spacingLeft=5;spacingRight=5;" vertex="1" parent="1">
          <mxGeometry x="-84" y="17" width="579" height="100" as="geometry" />
        </mxCell>
        <mxCell id="7ZGSdGo9mhl5E9FGy_AN-18" style="edgeStyle=orthogonalEdgeStyle;rounded=0;orthogonalLoop=1;jettySize=auto;html=1;" edge="1" parent="1" source="7ZGSdGo9mhl5E9FGy_AN-15" target="7ZGSdGo9mhl5E9FGy_AN-16">
          <mxGeometry relative="1" as="geometry" />
        </mxCell>
        <mxCell id="7ZGSdGo9mhl5E9FGy_AN-15" value="调度 Robot 取货/回港等" style="rounded=0;whiteSpace=wrap;html=1;verticalAlign=top;fontSize=16;align=center;spacingLeft=5;spacingRight=5;" vertex="1" parent="1">
          <mxGeometry x="25" y="33" width="111" height="62" as="geometry" />
        </mxCell>
        <mxCell id="7ZGSdGo9mhl5E9FGy_AN-19" style="edgeStyle=orthogonalEdgeStyle;rounded=0;orthogonalLoop=1;jettySize=auto;html=1;entryX=0;entryY=0.5;entryDx=0;entryDy=0;" edge="1" parent="1" source="7ZGSdGo9mhl5E9FGy_AN-16" target="7ZGSdGo9mhl5E9FGy_AN-17">
          <mxGeometry relative="1" as="geometry" />
        </mxCell>
        <mxCell id="7ZGSdGo9mhl5E9FGy_AN-16" value="调度 Boat" style="rounded=0;whiteSpace=wrap;html=1;verticalAlign=top;fontSize=16;align=center;spacingLeft=5;spacingRight=5;" vertex="1" parent="1">
          <mxGeometry x="161" y="33" width="93" height="62" as="geometry" />
        </mxCell>
        <mxCell id="7ZGSdGo9mhl5E9FGy_AN-17" value="调度购买Robot 与 Boat" style="rounded=0;whiteSpace=wrap;html=1;verticalAlign=top;fontSize=16;align=center;spacingLeft=5;spacingRight=5;" vertex="1" parent="1">
          <mxGeometry x="282" y="33" width="149" height="62" as="geometry" />
        </mxCell>
        <mxCell id="7ZGSdGo9mhl5E9FGy_AN-22" value="Robot类&lt;div&gt;&amp;nbsp;支持&lt;b&gt;声明式&lt;/b&gt;执行：&lt;div&gt;&lt;br&gt;&lt;div style=&quot;text-align: left;&quot;&gt;- 从港口出发去取货&lt;/div&gt;&lt;div style=&quot;text-align: left;&quot;&gt;- 返回某个港口&lt;/div&gt;&lt;div&gt;&lt;br&gt;&lt;/div&gt;&lt;/div&gt;&lt;/div&gt;" style="rounded=0;whiteSpace=wrap;html=1;verticalAlign=top;fontSize=16;align=center;spacingLeft=5;spacingRight=5;" vertex="1" parent="1">
          <mxGeometry x="-5" y="287" width="175" height="105" as="geometry" />
        </mxCell>
        <mxCell id="7ZGSdGo9mhl5E9FGy_AN-23" value="Boat 类&lt;div&gt;支持&lt;b&gt;声明式&lt;/b&gt;执行：&lt;div&gt;&lt;br&gt;&lt;div style=&quot;text-align: left;&quot;&gt;- 从 A 运动到 B&lt;/div&gt;&lt;div&gt;&lt;br&gt;&lt;/div&gt;&lt;/div&gt;&lt;/div&gt;" style="rounded=0;whiteSpace=wrap;html=1;verticalAlign=top;fontSize=16;align=center;spacingLeft=5;spacingRight=5;" vertex="1" parent="1">
          <mxGeometry x="185" y="287" width="164" height="96" as="geometry" />
        </mxCell>
        <mxCell id="7ZGSdGo9mhl5E9FGy_AN-24" value="&lt;div&gt;&lt;div&gt;&lt;div&gt;Berth 类&lt;/div&gt;&lt;/div&gt;&lt;/div&gt;&lt;div&gt;&lt;br&gt;&lt;/div&gt;&lt;div&gt;用于管理港口的货物情况&lt;/div&gt;" style="rounded=0;whiteSpace=wrap;html=1;verticalAlign=top;fontSize=16;align=center;spacingLeft=5;spacingRight=5;" vertex="1" parent="1">
          <mxGeometry x="363" y="287" width="127" height="96" as="geometry" />
        </mxCell>
        <mxCell id="7ZGSdGo9mhl5E9FGy_AN-27" style="edgeStyle=orthogonalEdgeStyle;rounded=0;orthogonalLoop=1;jettySize=auto;html=1;strokeWidth=2;" edge="1" parent="1" source="7ZGSdGo9mhl5E9FGy_AN-9" target="7ZGSdGo9mhl5E9FGy_AN-15">
          <mxGeometry relative="1" as="geometry">
            <mxPoint x="287.2856903076172" y="-161.5713882446289" as="targetPoint" />
          </mxGeometry>
        </mxCell>
        <mxCell id="7ZGSdGo9mhl5E9FGy_AN-31" value="&lt;font style=&quot;font-size: 15px;&quot;&gt;&lt;b&gt;&lt;font color=&quot;#ea6b66&quot;&gt;②&amp;nbsp;&lt;/font&gt;&lt;/b&gt;运行调度器&lt;/font&gt;" style="edgeLabel;html=1;align=center;verticalAlign=middle;resizable=0;points=[];" vertex="1" connectable="0" parent="7ZGSdGo9mhl5E9FGy_AN-27">
          <mxGeometry x="-0.2175" y="-3" relative="1" as="geometry">
            <mxPoint x="3" y="3" as="offset" />
          </mxGeometry>
        </mxCell>
        <mxCell id="7ZGSdGo9mhl5E9FGy_AN-37" value="Log" style="rounded=0;whiteSpace=wrap;html=1;fontSize=23;" vertex="1" parent="1">
          <mxGeometry x="-170" y="17" width="75" height="609" as="geometry" />
        </mxCell>
        <mxCell id="7ZGSdGo9mhl5E9FGy_AN-44" style="rounded=0;orthogonalLoop=1;jettySize=auto;html=1;entryX=1;entryY=0.5;entryDx=0;entryDy=0;edgeStyle=orthogonalEdgeStyle;curved=1;exitX=0.5;exitY=1;exitDx=0;exitDy=0;" edge="1" parent="1" source="7ZGSdGo9mhl5E9FGy_AN-38" target="7ZGSdGo9mhl5E9FGy_AN-39">
          <mxGeometry relative="1" as="geometry" />
        </mxCell>
        <mxCell id="7ZGSdGo9mhl5E9FGy_AN-38" value="未初始化" style="ellipse;whiteSpace=wrap;html=1;fontSize=16;fillColor=#d5e8d4;strokeColor=#82b366;" vertex="1" parent="1">
          <mxGeometry x="501" y="807" width="84" height="84" as="geometry" />
        </mxCell>
        <mxCell id="7ZGSdGo9mhl5E9FGy_AN-60" style="edgeStyle=orthogonalEdgeStyle;rounded=0;orthogonalLoop=1;jettySize=auto;html=1;curved=1;entryX=1;entryY=0.5;entryDx=0;entryDy=0;exitX=0.5;exitY=0;exitDx=0;exitDy=0;" edge="1" parent="1" source="7ZGSdGo9mhl5E9FGy_AN-39" target="7ZGSdGo9mhl5E9FGy_AN-40">
          <mxGeometry relative="1" as="geometry">
            <mxPoint x="416" y="773.2856979370117" as="targetPoint" />
          </mxGeometry>
        </mxCell>
        <mxCell id="7ZGSdGo9mhl5E9FGy_AN-39" value="正在返回港口" style="ellipse;whiteSpace=wrap;html=1;fontSize=16;fillColor=#f8cecc;strokeColor=#b85450;" vertex="1" parent="1">
          <mxGeometry x="363" y="919" width="106" height="90" as="geometry" />
        </mxCell>
        <mxCell id="7ZGSdGo9mhl5E9FGy_AN-50" style="edgeStyle=orthogonalEdgeStyle;rounded=0;orthogonalLoop=1;jettySize=auto;html=1;entryX=0.5;entryY=0;entryDx=0;entryDy=0;curved=1;" edge="1" parent="1" source="7ZGSdGo9mhl5E9FGy_AN-40" target="7ZGSdGo9mhl5E9FGy_AN-42">
          <mxGeometry relative="1" as="geometry" />
        </mxCell>
        <mxCell id="7ZGSdGo9mhl5E9FGy_AN-40" value="on 港口" style="ellipse;whiteSpace=wrap;html=1;fontSize=16;fillColor=#d5e8d4;strokeColor=#82b366;" vertex="1" parent="1">
          <mxGeometry x="213" y="781" width="84" height="84" as="geometry" />
        </mxCell>
        <mxCell id="7ZGSdGo9mhl5E9FGy_AN-54" value="" style="edgeStyle=orthogonalEdgeStyle;rounded=0;orthogonalLoop=1;jettySize=auto;html=1;startArrow=classic;startFill=1;" edge="1" parent="1" source="7ZGSdGo9mhl5E9FGy_AN-41" target="7ZGSdGo9mhl5E9FGy_AN-39">
          <mxGeometry relative="1" as="geometry" />
        </mxCell>
        <mxCell id="7ZGSdGo9mhl5E9FGy_AN-55" style="edgeStyle=orthogonalEdgeStyle;rounded=0;orthogonalLoop=1;jettySize=auto;html=1;entryX=0.5;entryY=1;entryDx=0;entryDy=0;startArrow=classic;startFill=1;" edge="1" parent="1" source="7ZGSdGo9mhl5E9FGy_AN-41" target="7ZGSdGo9mhl5E9FGy_AN-40">
          <mxGeometry relative="1" as="geometry" />
        </mxCell>
        <mxCell id="7ZGSdGo9mhl5E9FGy_AN-57" style="edgeStyle=orthogonalEdgeStyle;rounded=0;orthogonalLoop=1;jettySize=auto;html=1;entryX=0.5;entryY=0;entryDx=0;entryDy=0;startArrow=classic;startFill=1;" edge="1" parent="1" source="7ZGSdGo9mhl5E9FGy_AN-41" target="7ZGSdGo9mhl5E9FGy_AN-43">
          <mxGeometry relative="1" as="geometry" />
        </mxCell>
        <mxCell id="7ZGSdGo9mhl5E9FGy_AN-41" value="正在避障" style="ellipse;whiteSpace=wrap;html=1;fontSize=16;direction=south;fillColor=#f8cecc;strokeColor=#b85450;" vertex="1" parent="1">
          <mxGeometry x="213" y="921.25" width="84" height="85.5" as="geometry" />
        </mxCell>
        <mxCell id="7ZGSdGo9mhl5E9FGy_AN-52" style="edgeStyle=orthogonalEdgeStyle;rounded=0;orthogonalLoop=1;jettySize=auto;html=1;entryX=0;entryY=0.5;entryDx=0;entryDy=0;curved=1;exitX=0.5;exitY=1;exitDx=0;exitDy=0;" edge="1" parent="1" source="7ZGSdGo9mhl5E9FGy_AN-42" target="7ZGSdGo9mhl5E9FGy_AN-43">
          <mxGeometry relative="1" as="geometry" />
        </mxCell>
        <mxCell id="7ZGSdGo9mhl5E9FGy_AN-56" style="edgeStyle=orthogonalEdgeStyle;rounded=0;orthogonalLoop=1;jettySize=auto;html=1;entryX=0.5;entryY=1;entryDx=0;entryDy=0;startArrow=classic;startFill=1;" edge="1" parent="1" source="7ZGSdGo9mhl5E9FGy_AN-42" target="7ZGSdGo9mhl5E9FGy_AN-41">
          <mxGeometry relative="1" as="geometry" />
        </mxCell>
        <mxCell id="7ZGSdGo9mhl5E9FGy_AN-42" value="正在去取货" style="ellipse;whiteSpace=wrap;html=1;fontSize=16;fillColor=#f8cecc;strokeColor=#b85450;" vertex="1" parent="1">
          <mxGeometry x="33" y="922.75" width="84" height="84" as="geometry" />
        </mxCell>
        <mxCell id="7ZGSdGo9mhl5E9FGy_AN-53" style="edgeStyle=orthogonalEdgeStyle;rounded=0;orthogonalLoop=1;jettySize=auto;html=1;entryX=0.5;entryY=1;entryDx=0;entryDy=0;curved=1;" edge="1" parent="1" source="7ZGSdGo9mhl5E9FGy_AN-43" target="7ZGSdGo9mhl5E9FGy_AN-39">
          <mxGeometry relative="1" as="geometry" />
        </mxCell>
        <mxCell id="7ZGSdGo9mhl5E9FGy_AN-43" value="got 货物" style="ellipse;whiteSpace=wrap;html=1;fontSize=16;fillColor=#d5e8d4;strokeColor=#82b366;" vertex="1" parent="1">
          <mxGeometry x="213" y="1076" width="84" height="84" as="geometry" />
        </mxCell>
        <mxCell id="7ZGSdGo9mhl5E9FGy_AN-73" style="edgeStyle=orthogonalEdgeStyle;rounded=0;orthogonalLoop=1;jettySize=auto;html=1;startArrow=classic;startFill=1;endArrow=none;endFill=0;exitX=0;exitY=0.5;exitDx=0;exitDy=0;" edge="1" parent="1" source="7ZGSdGo9mhl5E9FGy_AN-75">
          <mxGeometry relative="1" as="geometry">
            <mxPoint x="-84.0043096923828" y="1458.5" as="targetPoint" />
            <mxPoint x="-25.29" y="1458.5" as="sourcePoint" />
          </mxGeometry>
        </mxCell>
        <mxCell id="7ZGSdGo9mhl5E9FGy_AN-87" style="edgeStyle=orthogonalEdgeStyle;rounded=0;orthogonalLoop=1;jettySize=auto;html=1;entryX=0;entryY=0.5;entryDx=0;entryDy=0;" edge="1" parent="1" source="7ZGSdGo9mhl5E9FGy_AN-63" target="7ZGSdGo9mhl5E9FGy_AN-89">
          <mxGeometry relative="1" as="geometry">
            <mxPoint x="489.57151794433594" y="1459" as="targetPoint" />
          </mxGeometry>
        </mxCell>
        <mxCell id="7ZGSdGo9mhl5E9FGy_AN-63" value="弹出下一个位置并执行" style="rounded=0;whiteSpace=wrap;html=1;verticalAlign=middle;fontSize=16;align=center;spacingLeft=5;spacingRight=5;" vertex="1" parent="1">
          <mxGeometry x="335.5" y="1431" width="101" height="56" as="geometry" />
        </mxCell>
        <mxCell id="7ZGSdGo9mhl5E9FGy_AN-86" style="edgeStyle=orthogonalEdgeStyle;rounded=0;orthogonalLoop=1;jettySize=auto;html=1;entryX=0.25;entryY=0;entryDx=0;entryDy=0;dashed=1;" edge="1" parent="1" source="7ZGSdGo9mhl5E9FGy_AN-70" target="7ZGSdGo9mhl5E9FGy_AN-63">
          <mxGeometry relative="1" as="geometry" />
        </mxCell>
        <mxCell id="7ZGSdGo9mhl5E9FGy_AN-70" value="&lt;font style=&quot;font-size: 16px;&quot;&gt;路径栈&lt;/font&gt;" style="shape=cylinder3;whiteSpace=wrap;html=1;boundedLbl=1;backgroundOutline=1;size=15;" vertex="1" parent="1">
          <mxGeometry x="170" y="1340" width="68" height="80" as="geometry" />
        </mxCell>
        <mxCell id="7ZGSdGo9mhl5E9FGy_AN-77" style="edgeStyle=orthogonalEdgeStyle;rounded=0;orthogonalLoop=1;jettySize=auto;html=1;fontSize=14;entryX=0;entryY=0.5;entryDx=0;entryDy=0;" edge="1" parent="1" source="7ZGSdGo9mhl5E9FGy_AN-75" target="7ZGSdGo9mhl5E9FGy_AN-63">
          <mxGeometry relative="1" as="geometry">
            <mxPoint x="174.1428680419922" y="1459" as="targetPoint" />
          </mxGeometry>
        </mxCell>
        <mxCell id="7ZGSdGo9mhl5E9FGy_AN-80" value="&lt;font style=&quot;font-size: 17px;&quot;&gt;否&lt;/font&gt;" style="edgeLabel;html=1;align=center;verticalAlign=middle;resizable=0;points=[];" vertex="1" connectable="0" parent="7ZGSdGo9mhl5E9FGy_AN-77">
          <mxGeometry x="-0.3107" y="-4" relative="1" as="geometry">
            <mxPoint x="22" y="-2" as="offset" />
          </mxGeometry>
        </mxCell>
        <mxCell id="7ZGSdGo9mhl5E9FGy_AN-81" style="edgeStyle=orthogonalEdgeStyle;rounded=0;orthogonalLoop=1;jettySize=auto;html=1;exitX=0.5;exitY=0;exitDx=0;exitDy=0;entryX=0;entryY=0.5;entryDx=0;entryDy=0;" edge="1" parent="1" source="7ZGSdGo9mhl5E9FGy_AN-75" target="7ZGSdGo9mhl5E9FGy_AN-76">
          <mxGeometry relative="1" as="geometry" />
        </mxCell>
        <mxCell id="7ZGSdGo9mhl5E9FGy_AN-82" value="是" style="edgeLabel;html=1;align=center;verticalAlign=middle;resizable=0;points=[];fontSize=16;" vertex="1" connectable="0" parent="7ZGSdGo9mhl5E9FGy_AN-81">
          <mxGeometry x="-0.2249" y="2" relative="1" as="geometry">
            <mxPoint x="2" y="22" as="offset" />
          </mxGeometry>
        </mxCell>
        <mxCell id="7ZGSdGo9mhl5E9FGy_AN-75" value="状态改变？" style="rhombus;whiteSpace=wrap;html=1;fontSize=16;" vertex="1" parent="1">
          <mxGeometry x="-17.29" y="1418" width="114" height="82" as="geometry" />
        </mxCell>
        <mxCell id="7ZGSdGo9mhl5E9FGy_AN-83" style="edgeStyle=orthogonalEdgeStyle;rounded=0;orthogonalLoop=1;jettySize=auto;html=1;entryX=0.5;entryY=0;entryDx=0;entryDy=0;" edge="1" parent="1" source="7ZGSdGo9mhl5E9FGy_AN-76" target="7ZGSdGo9mhl5E9FGy_AN-63">
          <mxGeometry relative="1" as="geometry" />
        </mxCell>
        <mxCell id="7ZGSdGo9mhl5E9FGy_AN-84" style="edgeStyle=orthogonalEdgeStyle;rounded=0;orthogonalLoop=1;jettySize=auto;html=1;dashed=1;" edge="1" parent="1" source="7ZGSdGo9mhl5E9FGy_AN-76" target="7ZGSdGo9mhl5E9FGy_AN-70">
          <mxGeometry relative="1" as="geometry" />
        </mxCell>
        <mxCell id="7ZGSdGo9mhl5E9FGy_AN-76" value="&lt;font style=&quot;font-size: 16px;&quot;&gt;重新计算路径&lt;/font&gt;" style="rounded=0;whiteSpace=wrap;html=1;" vertex="1" parent="1">
          <mxGeometry x="143" y="1254" width="120" height="60" as="geometry" />
        </mxCell>
        <mxCell id="7ZGSdGo9mhl5E9FGy_AN-90" style="edgeStyle=orthogonalEdgeStyle;rounded=0;orthogonalLoop=1;jettySize=auto;html=1;" edge="1" parent="1" source="7ZGSdGo9mhl5E9FGy_AN-89">
          <mxGeometry relative="1" as="geometry">
            <mxPoint x="653.5713958740234" y="1459" as="targetPoint" />
          </mxGeometry>
        </mxCell>
        <mxCell id="7ZGSdGo9mhl5E9FGy_AN-89" value="根据当前位置更新状态" style="rounded=0;whiteSpace=wrap;html=1;verticalAlign=middle;fontSize=16;align=center;spacingLeft=5;spacingRight=5;" vertex="1" parent="1">
          <mxGeometry x="505" y="1431" width="101" height="56" as="geometry" />
        </mxCell>
        <mxCell id="7ZGSdGo9mhl5E9FGy_AN-91" value="&lt;font style=&quot;font-size: 18px;&quot;&gt;1&lt;/font&gt;" style="ellipse;whiteSpace=wrap;html=1;fillColor=#d5e8d4;strokeColor=#82b366;" vertex="1" parent="1">
          <mxGeometry x="88" y="1610" width="69.71" height="69" as="geometry" />
        </mxCell>
        <mxCell id="7ZGSdGo9mhl5E9FGy_AN-94" style="rounded=0;orthogonalLoop=1;jettySize=auto;html=1;entryX=0.5;entryY=1;entryDx=0;entryDy=0;" edge="1" parent="1" source="7ZGSdGo9mhl5E9FGy_AN-92" target="7ZGSdGo9mhl5E9FGy_AN-91">
          <mxGeometry relative="1" as="geometry" />
        </mxCell>
        <mxCell id="7ZGSdGo9mhl5E9FGy_AN-92" value="&lt;font style=&quot;font-size: 18px;&quot;&gt;2&lt;/font&gt;" style="ellipse;whiteSpace=wrap;html=1;fillColor=#d5e8d4;strokeColor=#82b366;" vertex="1" parent="1">
          <mxGeometry x="86" y="1729" width="72" height="65" as="geometry" />
        </mxCell>
        <mxCell id="7ZGSdGo9mhl5E9FGy_AN-95" style="rounded=0;orthogonalLoop=1;jettySize=auto;html=1;exitX=0.5;exitY=0;exitDx=0;exitDy=0;entryX=0.5;entryY=1;entryDx=0;entryDy=0;" edge="1" parent="1" source="7ZGSdGo9mhl5E9FGy_AN-93" target="7ZGSdGo9mhl5E9FGy_AN-92">
          <mxGeometry relative="1" as="geometry" />
        </mxCell>
        <mxCell id="7ZGSdGo9mhl5E9FGy_AN-93" value="&lt;font style=&quot;font-size: 18px;&quot;&gt;3&lt;/font&gt;" style="ellipse;whiteSpace=wrap;html=1;" vertex="1" parent="1">
          <mxGeometry x="17" y="1860" width="72" height="65" as="geometry" />
        </mxCell>
        <mxCell id="7ZGSdGo9mhl5E9FGy_AN-98" style="rounded=0;orthogonalLoop=1;jettySize=auto;html=1;entryX=0.5;entryY=1;entryDx=0;entryDy=0;" edge="1" parent="1" source="7ZGSdGo9mhl5E9FGy_AN-96" target="7ZGSdGo9mhl5E9FGy_AN-92">
          <mxGeometry relative="1" as="geometry" />
        </mxCell>
        <mxCell id="7ZGSdGo9mhl5E9FGy_AN-96" value="&lt;font style=&quot;font-size: 18px;&quot;&gt;4&lt;/font&gt;" style="ellipse;whiteSpace=wrap;html=1;fillColor=#f8cecc;strokeColor=#b85450;" vertex="1" parent="1">
          <mxGeometry x="161" y="1860" width="72" height="65" as="geometry" />
        </mxCell>
        <mxCell id="7ZGSdGo9mhl5E9FGy_AN-99" value="&lt;span style=&quot;font-size: 18px;&quot;&gt;5&lt;/span&gt;" style="ellipse;whiteSpace=wrap;html=1;fillColor=#f8cecc;strokeColor=#b85450;" vertex="1" parent="1">
          <mxGeometry x="350" y="1699" width="72" height="65" as="geometry" />
        </mxCell>
        <mxCell id="7ZGSdGo9mhl5E9FGy_AN-101" style="rounded=0;orthogonalLoop=1;jettySize=auto;html=1;entryX=0.5;entryY=1;entryDx=0;entryDy=0;" edge="1" parent="1" source="7ZGSdGo9mhl5E9FGy_AN-100" target="7ZGSdGo9mhl5E9FGy_AN-99">
          <mxGeometry relative="1" as="geometry" />
        </mxCell>
        <mxCell id="7ZGSdGo9mhl5E9FGy_AN-100" value="&lt;span style=&quot;font-size: 18px;&quot;&gt;6&lt;/span&gt;" style="ellipse;whiteSpace=wrap;html=1;fillColor=#f8cecc;strokeColor=#b85450;" vertex="1" parent="1">
          <mxGeometry x="350" y="1845" width="72" height="65" as="geometry" />
        </mxCell>
        <mxCell id="7ZGSdGo9mhl5E9FGy_AN-102" value="&lt;font style=&quot;font-size: 18px;&quot;&gt;1&lt;/font&gt;" style="ellipse;whiteSpace=wrap;html=1;fillColor=#d5e8d4;strokeColor=#82b366;" vertex="1" parent="1">
          <mxGeometry x="100.29" y="2000" width="69.71" height="69" as="geometry" />
        </mxCell>
        <mxCell id="7ZGSdGo9mhl5E9FGy_AN-103" style="rounded=0;orthogonalLoop=1;jettySize=auto;html=1;entryX=0.5;entryY=1;entryDx=0;entryDy=0;" edge="1" parent="1" source="7ZGSdGo9mhl5E9FGy_AN-104" target="7ZGSdGo9mhl5E9FGy_AN-102">
          <mxGeometry relative="1" as="geometry" />
        </mxCell>
        <mxCell id="7ZGSdGo9mhl5E9FGy_AN-104" value="&lt;font style=&quot;font-size: 18px;&quot;&gt;2&lt;/font&gt;" style="ellipse;whiteSpace=wrap;html=1;fillColor=#d5e8d4;strokeColor=#82b366;" vertex="1" parent="1">
          <mxGeometry x="100.21" y="2096" width="72" height="65" as="geometry" />
        </mxCell>
        <mxCell id="7ZGSdGo9mhl5E9FGy_AN-105" style="rounded=0;orthogonalLoop=1;jettySize=auto;html=1;exitX=0.5;exitY=0;exitDx=0;exitDy=0;entryX=0.5;entryY=1;entryDx=0;entryDy=0;" edge="1" parent="1" source="7ZGSdGo9mhl5E9FGy_AN-106" target="7ZGSdGo9mhl5E9FGy_AN-104">
          <mxGeometry relative="1" as="geometry" />
        </mxCell>
        <mxCell id="7ZGSdGo9mhl5E9FGy_AN-106" value="&lt;font style=&quot;font-size: 18px;&quot;&gt;3&lt;/font&gt;" style="ellipse;whiteSpace=wrap;html=1;" vertex="1" parent="1">
          <mxGeometry x="100.21000000000001" y="2182" width="72" height="65" as="geometry" />
        </mxCell>
        <mxCell id="7ZGSdGo9mhl5E9FGy_AN-107" style="rounded=0;orthogonalLoop=1;jettySize=auto;html=1;entryX=0.5;entryY=1;entryDx=0;entryDy=0;" edge="1" parent="1" source="7ZGSdGo9mhl5E9FGy_AN-108" target="7ZGSdGo9mhl5E9FGy_AN-106">
          <mxGeometry relative="1" as="geometry" />
        </mxCell>
        <mxCell id="7ZGSdGo9mhl5E9FGy_AN-108" value="&lt;font style=&quot;font-size: 18px;&quot;&gt;4&lt;/font&gt;" style="ellipse;whiteSpace=wrap;html=1;fillColor=#f8cecc;strokeColor=#b85450;" vertex="1" parent="1">
          <mxGeometry x="-1.5" y="2350" width="72" height="65" as="geometry" />
        </mxCell>
        <mxCell id="7ZGSdGo9mhl5E9FGy_AN-112" style="rounded=0;orthogonalLoop=1;jettySize=auto;html=1;entryX=0.5;entryY=1;entryDx=0;entryDy=0;" edge="1" parent="1" source="7ZGSdGo9mhl5E9FGy_AN-109" target="7ZGSdGo9mhl5E9FGy_AN-106">
          <mxGeometry relative="1" as="geometry" />
        </mxCell>
        <mxCell id="7ZGSdGo9mhl5E9FGy_AN-109" value="&lt;span style=&quot;font-size: 18px;&quot;&gt;5&lt;/span&gt;" style="ellipse;whiteSpace=wrap;html=1;fillColor=#f8cecc;strokeColor=#b85450;" vertex="1" parent="1">
          <mxGeometry x="157.71" y="2282" width="72" height="65" as="geometry" />
        </mxCell>
        <mxCell id="7ZGSdGo9mhl5E9FGy_AN-110" style="rounded=0;orthogonalLoop=1;jettySize=auto;html=1;entryX=0.5;entryY=1;entryDx=0;entryDy=0;" edge="1" parent="1" source="7ZGSdGo9mhl5E9FGy_AN-111" target="7ZGSdGo9mhl5E9FGy_AN-109">
          <mxGeometry relative="1" as="geometry" />
        </mxCell>
        <mxCell id="7ZGSdGo9mhl5E9FGy_AN-111" value="&lt;span style=&quot;font-size: 18px;&quot;&gt;6&lt;/span&gt;" style="ellipse;whiteSpace=wrap;html=1;fillColor=#f8cecc;strokeColor=#b85450;" vertex="1" parent="1">
          <mxGeometry x="205" y="2380" width="72" height="65" as="geometry" />
        </mxCell>
        <mxCell id="7ZGSdGo9mhl5E9FGy_AN-113" value="" style="rounded=0;whiteSpace=wrap;html=1;fillColor=#d5e8d4;strokeColor=#82b366;" vertex="1" parent="1">
          <mxGeometry x="-341" y="2967" width="437" height="31" as="geometry" />
        </mxCell>
        <mxCell id="7ZGSdGo9mhl5E9FGy_AN-114" value="" style="rounded=0;whiteSpace=wrap;html=1;fillColor=#f8cecc;strokeColor=#b85450;" vertex="1" parent="1">
          <mxGeometry x="-222.5" y="2831" width="29" height="136" as="geometry" />
        </mxCell>
        <mxCell id="7ZGSdGo9mhl5E9FGy_AN-115" value="" style="rounded=0;whiteSpace=wrap;html=1;fillColor=#f8cecc;strokeColor=#b85450;" vertex="1" parent="1">
          <mxGeometry x="-117.36" y="2983" width="29" height="151" as="geometry" />
        </mxCell>
        <mxCell id="7ZGSdGo9mhl5E9FGy_AN-116" value="" style="endArrow=classic;html=1;rounded=0;" edge="1" parent="1">
          <mxGeometry width="50" height="50" relative="1" as="geometry">
            <mxPoint x="-401" y="2991" as="sourcePoint" />
            <mxPoint x="132" y="2991" as="targetPoint" />
          </mxGeometry>
        </mxCell>
        <mxCell id="7ZGSdGo9mhl5E9FGy_AN-121" value="1" style="text;html=1;align=center;verticalAlign=middle;whiteSpace=wrap;rounded=0;fontSize=17;" vertex="1" parent="1">
          <mxGeometry x="-31" y="2964" width="60" height="30" as="geometry" />
        </mxCell>
        <mxCell id="7ZGSdGo9mhl5E9FGy_AN-120" value="1" style="text;html=1;align=center;verticalAlign=middle;whiteSpace=wrap;rounded=0;fontSize=17;" vertex="1" parent="1">
          <mxGeometry x="-315.28999999999996" y="2964" width="60" height="30" as="geometry" />
        </mxCell>
        <mxCell id="7ZGSdGo9mhl5E9FGy_AN-123" value="2" style="text;html=1;align=center;verticalAlign=middle;whiteSpace=wrap;rounded=0;fontSize=17;" vertex="1" parent="1">
          <mxGeometry x="-231" y="2865" width="60" height="30" as="geometry" />
        </mxCell>
        <mxCell id="7ZGSdGo9mhl5E9FGy_AN-124" value="2" style="text;html=1;align=center;verticalAlign=middle;whiteSpace=wrap;rounded=0;fontSize=17;" vertex="1" parent="1">
          <mxGeometry x="-135" y="3030" width="60" height="30" as="geometry" />
        </mxCell>
        <mxCell id="7ZGSdGo9mhl5E9FGy_AN-127" value="" style="rounded=0;whiteSpace=wrap;html=1;fillColor=#d5e8d4;strokeColor=#82b366;" vertex="1" parent="1">
          <mxGeometry x="254" y="2967" width="437" height="31" as="geometry" />
        </mxCell>
        <mxCell id="7ZGSdGo9mhl5E9FGy_AN-128" value="" style="rounded=0;whiteSpace=wrap;html=1;fillColor=#f8cecc;strokeColor=#b85450;" vertex="1" parent="1">
          <mxGeometry x="372.5" y="2831" width="29" height="136" as="geometry" />
        </mxCell>
        <mxCell id="7ZGSdGo9mhl5E9FGy_AN-129" value="" style="rounded=0;whiteSpace=wrap;html=1;fillColor=#f8cecc;strokeColor=#b85450;" vertex="1" parent="1">
          <mxGeometry x="477.64" y="2998" width="29" height="136" as="geometry" />
        </mxCell>
        <mxCell id="7ZGSdGo9mhl5E9FGy_AN-130" value="" style="rounded=0;whiteSpace=wrap;html=1;fillColor=#e1d5e7;strokeColor=#9673a6;" vertex="1" parent="1">
          <mxGeometry x="372" y="2967" width="134" height="32" as="geometry" />
        </mxCell>
        <mxCell id="7ZGSdGo9mhl5E9FGy_AN-131" value="" style="endArrow=classic;html=1;rounded=0;" edge="1" parent="1">
          <mxGeometry width="50" height="50" relative="1" as="geometry">
            <mxPoint x="383" y="2849" as="sourcePoint" />
            <mxPoint x="497" y="3178" as="targetPoint" />
            <Array as="points">
              <mxPoint x="386" y="2978" />
              <mxPoint x="501" y="2978" />
            </Array>
          </mxGeometry>
        </mxCell>
        <mxCell id="7ZGSdGo9mhl5E9FGy_AN-132" value="" style="endArrow=classic;html=1;rounded=0;" edge="1" parent="1">
          <mxGeometry width="50" height="50" relative="1" as="geometry">
            <mxPoint x="194" y="2991" as="sourcePoint" />
            <mxPoint x="727" y="2991" as="targetPoint" />
          </mxGeometry>
        </mxCell>
        <mxCell id="7ZGSdGo9mhl5E9FGy_AN-133" value="1" style="text;html=1;align=center;verticalAlign=middle;whiteSpace=wrap;rounded=0;fontSize=17;" vertex="1" parent="1">
          <mxGeometry x="564" y="2964" width="60" height="30" as="geometry" />
        </mxCell>
        <mxCell id="7ZGSdGo9mhl5E9FGy_AN-134" value="1" style="text;html=1;align=center;verticalAlign=middle;whiteSpace=wrap;rounded=0;fontSize=17;" vertex="1" parent="1">
          <mxGeometry x="279.71000000000004" y="2964" width="60" height="30" as="geometry" />
        </mxCell>
        <mxCell id="7ZGSdGo9mhl5E9FGy_AN-135" value="2" style="text;html=1;align=center;verticalAlign=middle;whiteSpace=wrap;rounded=0;fontSize=17;" vertex="1" parent="1">
          <mxGeometry x="364" y="2865" width="60" height="30" as="geometry" />
        </mxCell>
        <mxCell id="7ZGSdGo9mhl5E9FGy_AN-136" value="2" style="text;html=1;align=center;verticalAlign=middle;whiteSpace=wrap;rounded=0;fontSize=17;" vertex="1" parent="1">
          <mxGeometry x="460" y="3030" width="60" height="30" as="geometry" />
        </mxCell>
        <mxCell id="7ZGSdGo9mhl5E9FGy_AN-137" value="3" style="text;html=1;align=center;verticalAlign=middle;whiteSpace=wrap;rounded=0;fontSize=17;" vertex="1" parent="1">
          <mxGeometry x="402" y="2972" width="60" height="30" as="geometry" />
        </mxCell>
        <mxCell id="7ZGSdGo9mhl5E9FGy_AN-138" value="" style="rounded=0;whiteSpace=wrap;html=1;fillColor=#f8cecc;strokeColor=#b85450;" vertex="1" parent="1">
          <mxGeometry x="-222.5" y="2967" width="136.5" height="16" as="geometry" />
        </mxCell>
        <mxCell id="7ZGSdGo9mhl5E9FGy_AN-141" value="" style="endArrow=classic;html=1;rounded=0;" edge="1" parent="1">
          <mxGeometry width="50" height="50" relative="1" as="geometry">
            <mxPoint x="-213" y="2844" as="sourcePoint" />
            <mxPoint x="-99" y="3173" as="targetPoint" />
            <Array as="points">
              <mxPoint x="-210" y="2973" />
              <mxPoint x="-95" y="2973" />
            </Array>
          </mxGeometry>
        </mxCell>
        <mxCell id="7ZGSdGo9mhl5E9FGy_AN-144" value="A" style="text;html=1;align=center;verticalAlign=middle;whiteSpace=wrap;rounded=0;fontSize=17;fontStyle=1" vertex="1" parent="1">
          <mxGeometry x="-399" y="2958" width="60" height="30" as="geometry" />
        </mxCell>
        <mxCell id="7ZGSdGo9mhl5E9FGy_AN-145" value="&lt;b&gt;B&lt;/b&gt;" style="text;html=1;align=center;verticalAlign=middle;whiteSpace=wrap;rounded=0;fontSize=17;" vertex="1" parent="1">
          <mxGeometry x="89.00000000000006" y="2960" width="60" height="30" as="geometry" />
        </mxCell>
        <mxCell id="7ZGSdGo9mhl5E9FGy_AN-146" value="D" style="text;html=1;align=center;verticalAlign=middle;whiteSpace=wrap;rounded=0;fontSize=17;fontStyle=1" vertex="1" parent="1">
          <mxGeometry x="-117.35999999999994" y="3131" width="60" height="30" as="geometry" />
        </mxCell>
        <mxCell id="7ZGSdGo9mhl5E9FGy_AN-147" value="&lt;b&gt;C&lt;/b&gt;" style="text;html=1;align=center;verticalAlign=middle;whiteSpace=wrap;rounded=0;fontSize=17;" vertex="1" parent="1">
          <mxGeometry x="-237.99999999999994" y="2791" width="60" height="30" as="geometry" />
        </mxCell>
        <mxCell id="7ZGSdGo9mhl5E9FGy_AN-148" value="A" style="text;html=1;align=center;verticalAlign=middle;whiteSpace=wrap;rounded=0;fontSize=17;fontStyle=1" vertex="1" parent="1">
          <mxGeometry x="194" y="2960" width="60" height="30" as="geometry" />
        </mxCell>
        <mxCell id="7ZGSdGo9mhl5E9FGy_AN-149" value="&lt;b&gt;B&lt;/b&gt;" style="text;html=1;align=center;verticalAlign=middle;whiteSpace=wrap;rounded=0;fontSize=17;" vertex="1" parent="1">
          <mxGeometry x="685" y="2958" width="60" height="30" as="geometry" />
        </mxCell>
        <mxCell id="7ZGSdGo9mhl5E9FGy_AN-150" value="&lt;b&gt;C&lt;/b&gt;" style="text;html=1;align=center;verticalAlign=middle;whiteSpace=wrap;rounded=0;fontSize=17;" vertex="1" parent="1">
          <mxGeometry x="360.00000000000006" y="2795" width="60" height="30" as="geometry" />
        </mxCell>
        <mxCell id="7ZGSdGo9mhl5E9FGy_AN-151" value="D" style="text;html=1;align=center;verticalAlign=middle;whiteSpace=wrap;rounded=0;fontSize=17;fontStyle=1" vertex="1" parent="1">
          <mxGeometry x="484.00000000000006" y="3136" width="60" height="30" as="geometry" />
        </mxCell>
        <mxCell id="7ZGSdGo9mhl5E9FGy_AN-152" value="" style="rounded=0;whiteSpace=wrap;html=1;fillColor=#d5e8d4;strokeColor=#82b366;" vertex="1" parent="1">
          <mxGeometry x="-348" y="3413" width="437" height="31" as="geometry" />
        </mxCell>
        <mxCell id="7ZGSdGo9mhl5E9FGy_AN-153" value="" style="rounded=0;whiteSpace=wrap;html=1;fillColor=#f8cecc;strokeColor=#b85450;" vertex="1" parent="1">
          <mxGeometry x="-229.5" y="3277" width="29" height="136" as="geometry" />
        </mxCell>
        <mxCell id="7ZGSdGo9mhl5E9FGy_AN-154" value="" style="rounded=0;whiteSpace=wrap;html=1;fillColor=#d80073;strokeColor=#A50040;fontColor=#ffffff;" vertex="1" parent="1">
          <mxGeometry x="-124.36000000000001" y="3444" width="29" height="136" as="geometry" />
        </mxCell>
        <mxCell id="7ZGSdGo9mhl5E9FGy_AN-155" value="" style="rounded=0;whiteSpace=wrap;html=1;fillColor=#e1d5e7;strokeColor=#9673a6;" vertex="1" parent="1">
          <mxGeometry x="-230" y="3413" width="134" height="32" as="geometry" />
        </mxCell>
        <mxCell id="7ZGSdGo9mhl5E9FGy_AN-156" value="" style="endArrow=classic;html=1;rounded=0;" edge="1" parent="1">
          <mxGeometry width="50" height="50" relative="1" as="geometry">
            <mxPoint x="-219" y="3295" as="sourcePoint" />
            <mxPoint x="-105" y="3624" as="targetPoint" />
            <Array as="points">
              <mxPoint x="-216" y="3424" />
              <mxPoint x="-101" y="3424" />
            </Array>
          </mxGeometry>
        </mxCell>
        <mxCell id="7ZGSdGo9mhl5E9FGy_AN-159" value="1" style="text;html=1;align=center;verticalAlign=middle;whiteSpace=wrap;rounded=0;fontSize=17;" vertex="1" parent="1">
          <mxGeometry x="-318.99999999999994" y="3414" width="60" height="30" as="geometry" />
        </mxCell>
        <mxCell id="7ZGSdGo9mhl5E9FGy_AN-160" value="2" style="text;html=1;align=center;verticalAlign=middle;whiteSpace=wrap;rounded=0;fontSize=17;" vertex="1" parent="1">
          <mxGeometry x="-238" y="3311" width="60" height="30" as="geometry" />
        </mxCell>
        <mxCell id="7ZGSdGo9mhl5E9FGy_AN-161" value="2.1" style="text;html=1;align=center;verticalAlign=middle;whiteSpace=wrap;rounded=0;fontSize=17;" vertex="1" parent="1">
          <mxGeometry x="-144" y="3509" width="60" height="30" as="geometry" />
        </mxCell>
        <mxCell id="7ZGSdGo9mhl5E9FGy_AN-162" value="3" style="text;html=1;align=center;verticalAlign=middle;whiteSpace=wrap;rounded=0;fontSize=17;" vertex="1" parent="1">
          <mxGeometry x="-200" y="3418" width="60" height="30" as="geometry" />
        </mxCell>
        <mxCell id="7ZGSdGo9mhl5E9FGy_AN-163" value="A" style="text;html=1;align=center;verticalAlign=middle;whiteSpace=wrap;rounded=0;fontSize=17;fontStyle=1" vertex="1" parent="1">
          <mxGeometry x="-408" y="3406" width="60" height="30" as="geometry" />
        </mxCell>
        <mxCell id="7ZGSdGo9mhl5E9FGy_AN-164" value="&lt;b&gt;B&lt;/b&gt;" style="text;html=1;align=center;verticalAlign=middle;whiteSpace=wrap;rounded=0;fontSize=17;" vertex="1" parent="1">
          <mxGeometry x="83" y="3404" width="60" height="30" as="geometry" />
        </mxCell>
        <mxCell id="7ZGSdGo9mhl5E9FGy_AN-165" value="&lt;b&gt;C&lt;/b&gt;" style="text;html=1;align=center;verticalAlign=middle;whiteSpace=wrap;rounded=0;fontSize=17;" vertex="1" parent="1">
          <mxGeometry x="-241.99999999999994" y="3241" width="60" height="30" as="geometry" />
        </mxCell>
        <mxCell id="7ZGSdGo9mhl5E9FGy_AN-166" value="D" style="text;html=1;align=center;verticalAlign=middle;whiteSpace=wrap;rounded=0;fontSize=17;fontStyle=1" vertex="1" parent="1">
          <mxGeometry x="-117.99999999999994" y="3582" width="60" height="30" as="geometry" />
        </mxCell>
        <mxCell id="7ZGSdGo9mhl5E9FGy_AN-167" value="" style="rounded=0;whiteSpace=wrap;html=1;fillColor=#008a00;fontColor=#ffffff;strokeColor=#005700;" vertex="1" parent="1">
          <mxGeometry x="-93.5" y="3413" width="185" height="31" as="geometry" />
        </mxCell>
        <mxCell id="7ZGSdGo9mhl5E9FGy_AN-158" value="1.1" style="text;html=1;align=center;verticalAlign=middle;whiteSpace=wrap;rounded=0;fontSize=17;" vertex="1" parent="1">
          <mxGeometry x="-35" y="3413" width="60" height="30" as="geometry" />
        </mxCell>
        <mxCell id="7ZGSdGo9mhl5E9FGy_AN-170" value="" style="endArrow=classic;html=1;rounded=0;" edge="1" parent="1">
          <mxGeometry width="50" height="50" relative="1" as="geometry">
            <mxPoint x="-393" y="3439" as="sourcePoint" />
            <mxPoint x="140" y="3439" as="targetPoint" />
          </mxGeometry>
        </mxCell>
      </root>
    </mxGraphModel>
  </diagram>
</mxfile>
